<?xml version="1.0" encoding="UTF-8" standalone="no"?>
<!-- Created with Inkscape (http://www.inkscape.org/) -->

<svg
   xmlns:dc="http://purl.org/dc/elements/1.1/"
   xmlns:cc="http://creativecommons.org/ns#"
   xmlns:rdf="http://www.w3.org/1999/02/22-rdf-syntax-ns#"
   xmlns:svg="http://www.w3.org/2000/svg"
   xmlns="http://www.w3.org/2000/svg"
   xmlns:xlink="http://www.w3.org/1999/xlink"
   xmlns:sodipodi="http://sodipodi.sourceforge.net/DTD/sodipodi-0.dtd"
   xmlns:inkscape="http://www.inkscape.org/namespaces/inkscape"
   width="1200mm"
   height="1235mm"
   viewBox="0 0 1200 1235"
   version="1.1"
   id="svg8"
   inkscape:version="0.92.1 r15371"
   sodipodi:docname="floor_bg.svg">
  <defs
     id="defs2" />
  <sodipodi:namedview
     id="base"
     pagecolor="#ffffff"
     bordercolor="#666666"
     borderopacity="1.0"
     inkscape:pageopacity="0.0"
     inkscape:pageshadow="2"
     inkscape:zoom="0.10780985"
     inkscape:cx="2849.2606"
     inkscape:cy="2896.2252"
     inkscape:document-units="mm"
     inkscape:current-layer="g404"
     showgrid="false"
     inkscape:window-width="1538"
     inkscape:window-height="877"
     inkscape:window-x="1420"
     inkscape:window-y="-8"
     inkscape:window-maximized="1" />
  <metadata
     id="metadata5">
    <rdf:RDF>
      <cc:Work
         rdf:about="">
        <dc:format>image/svg+xml</dc:format>
        <dc:type
           rdf:resource="http://purl.org/dc/dcmitype/StillImage" />
        <dc:title></dc:title>
      </cc:Work>
    </rdf:RDF>
  </metadata>
  <g
     inkscape:label="Layer 1"
     inkscape:groupmode="layer"
     id="layer1"
     transform="translate(0,938)">
    <g
       id="g404"
       transform="matrix(0.56970502,0,0,0.60047576,-472.89924,-59.422286)">
      <image
         sodipodi:absref="D:\WORK\RESIDENT2.0\app\img\floor_page\floor_bg.jpg"
         y="-1463.1359"
         x="830.07733"
         id="image414"
         xlink:href="file:///D:/WORK/RESIDENT2.0/app/img/floor_page/floor_bg.jpg"
         preserveAspectRatio="none"
         height="2056.7024"
         width="2106.3533" />
      <g
         id="XMLID_32_"
         transform="translate(1186.8034,-593.42027)">
        <polygon
           points="458.9,463.8 458.9,430.5 141.4,430.5 182.1,463.8 "
           class="st0"
           id="XMLID_27_"
           style="opacity:0.5"
           transform="matrix(3.0812775,0,0,3.0036857,-360.6386,-914.20234)" />
        <rect
           height="66.093422"
           width="213.63394"
           class="st1"
           y="394.44003"
           x="1065.0624"
           id="XMLID_29_"
           style="fill:#b7957a;stroke-width:1.16362691" />
        <polygon
           points="706.1,447.2 695.9,420.1 695.9,474.1 "
           class="st2"
           id="XMLID_31_"
           style="fill:#7c624c"
           transform="matrix(1,0,0,1.387146,582.79629,-192.70625)" />
        <text
           class="st3 st4 st5"
           id="XMLID_28_"
           style="font-size:36.4127121px;font-family:EngraversGothic-Bold;fill:#f4ede7;stroke-width:1.01146424"
           x="1352.4868"
           y="382.23306"
           transform="scale(0.85832688,1.1650573)">4</text>
        <text
           class="st3 st6 st7"
           id="XMLID_30_"
           style="font-size:12.93143463px;font-family:Roboto-Regular;fill:#f4ede7;stroke-width:1.07761955"
           x="1316.6869"
           y="392.15234"
           transform="scale(0.90805186,1.1012587)">Поверх</text>
      </g>
      <g
         id="XMLID_58_"
         transform="translate(1433.6453,-763.99135)">
        <polygon
           points="107.9,402.6 142.2,430.5 458.9,430.5 458.9,397.2 243.6,397.2 243.6,400.1 107.9,400.3 "
           class="st0"
           id="XMLID_67_"
           style="opacity:0.5"
           transform="matrix(3.0792177,0,0,2.928079,-607.57795,-711.08256)" />
        <rect
           height="66.093422"
           width="213.63394"
           class="st1"
           y="472.43991"
           x="818.55634"
           id="XMLID_64_"
           style="fill:#b7957a;stroke-width:1.16362691" />
        <polygon
           points="695.9,440.9 706.1,413.9 695.9,386.9 "
           class="st2"
           id="XMLID_61_"
           style="fill:#7c624c"
           transform="matrix(1.1382883,0,0,1.387146,240.05548,-68.409035)" />
        <text
           class="st3 st4 st5"
           id="XMLID_60_"
           style="font-size:38.82950974px;font-family:EngraversGothic-Bold;fill:#f4ede7;stroke-width:1.07859755"
           x="975.94318"
           y="486.67151"
           transform="scale(0.93435196,1.0702605)">5</text>
        <text
           class="st3 st6 st7"
           id="XMLID_59_"
           style="font-size:12.93143559px;font-family:Roboto-Regular;fill:#f4ede7;stroke-width:1.07761955"
           x="1042.6377"
           y="462.8252"
           transform="scale(0.90805185,1.1012587)">Поверх</text>
      </g>
      <g
         id="XMLID_68_"
         transform="matrix(1,0,0,1.0462749,1071.934,-747.0514)">
        <polygon
           points="425,397.2 425,363.9 243.7,363.9 243.7,371.1 89.4,370.9 89.4,377.7 107.9,393.2 107.9,400.3 243.6,400.1 243.6,397.2 "
           class="st0"
           id="XMLID_77_"
           style="opacity:0.5"
           transform="matrix(3.0797358,0,0,2.245084,-244.10223,-476.64575)" />
        <rect
           height="63.170231"
           width="213.63394"
           class="st1"
           y="345.83661"
           x="1077.723"
           id="XMLID_74_"
           style="fill:#b7957a;stroke-width:1.06404626" />
        <polygon
           points="706.1,380.6 695.9,353.5 695.9,407.5 "
           class="st2"
           id="XMLID_71_"
           style="fill:#7c624c"
           transform="matrix(1.1382883,0,0,1.3257949,499.2221,-127.79075)" />
        <text
           class="st3 st4 st5"
           id="XMLID_70_"
           style="font-size:36.08617783px;font-family:EngraversGothic-Bold;fill:#f4ede7;stroke-width:1.00239384"
           x="1261.4592"
           y="361.05026"
           transform="scale(0.92525753,1.0807802)">6</text>
        <text
           class="st3 st6 st7"
           id="XMLID_69_"
           style="font-size:12.64223385px;font-family:Roboto-Regular;fill:#f4ede7;stroke-width:1.05351949"
           x="1297.5399"
           y="351.87262"
           transform="scale(0.92882427,1.0766299)">Поверх</text>
      </g>
      <g
         id="XMLID_78_"
         transform="translate(1234.815,-814.24236)">
        <polygon
           points="425,330.7 243.5,330.7 243.5,344.9 89.4,345.4 89.4,370.9 243.7,371.1 243.7,364 425,364 "
           class="st0"
           id="XMLID_87_"
           style="opacity:0.5"
           transform="matrix(3.0718281,0,0,2.9631662,-403.97315,-660.73489)" />
        <rect
           height="66.093422"
           width="213.63394"
           class="st1"
           y="333.1687"
           x="914.9256"
           id="XMLID_84_"
           style="fill:#b7957a;stroke-width:1.08838725" />
        <polygon
           points="706.1,347.4 695.9,320.4 695.9,374.4 "
           class="st2"
           id="XMLID_81_"
           style="fill:#7c624c"
           transform="matrix(1.1382883,0,0,1.387146,336.42474,-111.27288)" />
        <text
           class="st3 st4 st5"
           id="XMLID_80_"
           style="font-size:38.27675629px;font-family:EngraversGothic-Bold;fill:#f4ede7;stroke-width:1.06324327"
           x="1114.8475"
           y="349.54855"
           transform="scale(0.90226648,1.10832)">7</text>
        <text
           class="st3 st6 st7"
           id="XMLID_79_"
           style="font-size:12.93143463px;font-family:Roboto-Regular;fill:#f4ede7;stroke-width:1.07761955"
           x="1146.0233"
           y="339.27969"
           transform="scale(0.90805186,1.1012587)">Поверх</text>
      </g>
      <g
         id="XMLID_88_"
         transform="translate(1082.5286,-854.24641)">
        <polygon
           points="425,330.7 425,297.4 244,297.4 244,317.5 117.8,317.5 117.8,344.9 243.5,344.9 243.5,330.7 "
           class="st0"
           id="XMLID_97_"
           style="opacity:0.5"
           transform="matrix(3.064672,0,0,3.1467974,-249.94424,-684.09213)" />
        <rect
           height="66.093422"
           width="213.63394"
           class="st1"
           y="269.27725"
           x="1061.9211"
           id="XMLID_94_"
           style="fill:#b7957a;stroke-width:1.08838725" />
        <polygon
           points="695.9,287 695.9,341 706.1,314.1 "
           class="st2"
           id="XMLID_91_"
           style="fill:#7c624c"
           transform="matrix(1.1382883,0,0,1.387146,483.42022,-134.12113)" />
        <text
           class="st3 st4 st5"
           id="XMLID_90_"
           style="font-size:36.73519897px;font-family:EngraversGothic-Bold;fill:#f4ede7;stroke-width:1.02042222"
           x="1280.1406"
           y="288.22336"
           transform="scale(0.90547411,1.1043938)">8</text>
        <text
           class="st3 st6 st7"
           id="XMLID_89_"
           style="font-size:12.93143559px;font-family:Roboto-Regular;fill:#f4ede7;stroke-width:1.07761955"
           x="1310.8573"
           y="278.37445"
           transform="scale(0.90805185,1.1012587)">Поверх</text>
      </g>
      <g
         id="XMLID_98_"
         transform="translate(1136.3017,-941.26971)">
        <polygon
           points="117.8,317.5 244,317.5 244,297.3 425,297.3 425,264.1 244,264.1 244.3,290.8 117.8,290.8 "
           class="st0"
           id="XMLID_107_"
           style="opacity:0.5"
           transform="matrix(3.064672,0,0,3.0982066,-302.92972,-583.09157)" />
        <rect
           height="66.093422"
           width="213.63394"
           class="st1"
           y="254.5463"
           x="1007.8491"
           id="XMLID_104_"
           style="fill:#b7957a;stroke-width:1.08838725" />
        <polygon
           points="695.9,253.7 695.9,307.7 706.1,280.8 "
           class="st2"
           id="XMLID_101_"
           style="fill:#7c624c"
           transform="matrix(1.1382883,0,0,1.387146,429.3482,-102.41598)" />
        <text
           class="st3 st4 st5"
           id="XMLID_100_"
           style="font-size:36.91167831px;font-family:EngraversGothic-Bold;fill:#f4ede7;stroke-width:1.02532434"
           x="1217.6702"
           y="273.56091"
           transform="scale(0.90456489,1.1055039)">9</text>
        <text
           class="st3 st6 st7"
           id="XMLID_99_"
           style="font-size:12.93143559px;font-family:Roboto-Regular;fill:#f4ede7;stroke-width:1.07761955"
           x="1249.0437"
           y="263.88177"
           transform="scale(0.90805184,1.1012587)">Поверх</text>
      </g>
      <g
         id="XMLID_108_"
         transform="translate(1149.9716,-1041.6151)">
        <polygon
           points="412.8,264.1 412.8,232.6 268.2,232.6 268.2,260.4 117.2,260.3 117.8,290.8 244.3,290.8 244,264.1 "
           class="st0"
           id="XMLID_117_"
           style="opacity:0.5"
           transform="matrix(3.0559163,0,0,3.0333149,-315.26086,-465.39551)" />
        <rect
           height="66.093422"
           width="213.63394"
           class="st1"
           y="256.01663"
           x="957.18134"
           id="XMLID_114_"
           style="fill:#b7957a;stroke-width:1.06467724" />
        <polygon
           points="695.9,222.2 695.9,276.2 706.1,249.3 "
           class="st2"
           id="XMLID_111_"
           style="fill:#7c624c"
           transform="matrix(1.1382883,0,0,1.387146,378.68048,-57.250618)" />
        <text
           class="st3 st4 st5"
           id="XMLID_110_"
           style="font-size:38.30300903px;font-family:EngraversGothic-Bold;fill:#f4ede7;stroke-width:1.06397247"
           x="1102.1135"
           y="283.91437"
           transform="scale(0.93987392,1.0639725)">10</text>
        <text
           class="st3 st6 st7"
           id="XMLID_109_"
           style="font-size:12.93143463px;font-family:Roboto-Regular;fill:#f4ede7;stroke-width:1.07761955"
           x="1201.4695"
           y="266.12878"
           transform="scale(0.90805186,1.1012587)">Поверх</text>
      </g>
      <polygon
         points="268.2,260.4 268.2,232.6 412.8,232.6 412.8,203.9 268.5,203.9 268.3,230 117.2,230 117.2,260.3 "
         class="st0"
         id="XMLID_127_"
         style="opacity:0.5"
         transform="matrix(3.0592155,0,0,3.0053605,832.46641,-1501.2237)" />
      <rect
         height="66.093422"
         width="213.63394"
         class="st1"
         y="-879.30518"
         x="2107.5007"
         id="XMLID_124_"
         style="fill:#b7957a;stroke-width:1.06467724" />
      <polygon
         points="695.9,247.5 706.1,220.6 695.9,193.5 "
         class="st2"
         id="XMLID_121_"
         style="fill:#7c624c"
         transform="matrix(1.1382883,0,0,1.387146,1529,-1152.1243)" />
      <text
         class="st3 st4 st5"
         id="XMLID_120_"
         style="font-size:39.77326202px;font-family:EngraversGothic-Bold;fill:#f4ede7;stroke-width:1.10481274"
         x="2319.5151"
         y="-780.49811"
         transform="scale(0.94069061,1.0630488)">11</text>
      <text
         class="st3 st6 st7"
         transform="translate(549.0003,223.9621)"
         id="XMLID_119_"
         style="font-size:12px;font-family:Roboto-Regular;fill:#f4ede7">Поверх</text>
      <g
         id="XMLID_34_"
         transform="translate(1500.7647,-549.92397)">
        <rect
           height="93.728096"
           width="848.70203"
           class="st0"
           y="437.26282"
           x="-109.82216"
           id="XMLID_47_"
           style="opacity:0.5;stroke-width:2.93769956" />
        <rect
           height="66.093422"
           width="208.98973"
           class="st1"
           y="451.33987"
           x="751.73279"
           id="XMLID_40_"
           style="fill:#b7957a;stroke-width:1.15285671" />
        <polygon
           points="695.1,507.3 705.3,480.4 695.1,453.3 "
           class="st2"
           id="XMLID_37_"
           style="fill:#7c624c"
           transform="matrix(1.1382883,0,0,1.387146,169.49834,-181.85963)" />
        <text
           class="st3 st4 st5"
           id="XMLID_36_"
           style="font-size:38.22338486px;font-family:EngraversGothic-Bold;fill:#f4ede7;stroke-width:1.06176078"
           x="901.37866"
           y="469.2402"
           transform="scale(0.93852526,1.0655014)">3</text>
        <text
           class="st3 st6 st7"
           id="XMLID_35_"
           style="font-size:12.93143559px;font-family:Roboto-Regular;fill:#f4ede7;stroke-width:1.07761955"
           x="971.33215"
           y="442.31256"
           transform="scale(0.90805185,1.1012587)">Поверх</text>
      </g>
      <g
         id="XMLID_38_"
         transform="matrix(0.97210224,0,0,1.1613586,1360.9045,-573.09636)">
        <polygon
           points="182.1,530.3 458.9,530.3 458.9,497 182.2,497 "
           class="st0"
           id="XMLID_57_"
           style="opacity:0.5"
           transform="matrix(3.1500713,0,0,2.5878301,-543.04291,-805.51737)" />
        <rect
           height="56.910439"
           width="214.9874"
           class="st1"
           y="482.80328"
           x="918.22229"
           id="XMLID_50_"
           style="fill:#b7957a;stroke-width:1.08501649" />
        <polygon
           points="695.1,486.6 695.1,540.6 705.3,513.7 "
           class="st2"
           id="XMLID_46_"
           style="fill:#7c624c"
           transform="matrix(1.1709553,0,0,1.1944166,318.96168,-101.75931)" />
        <text
           class="st3 st4 st5"
           id="XMLID_44_"
           style="font-size:35.84910583px;font-family:EngraversGothic-Bold;fill:#f4ede7;stroke-width:0.99580854"
           x="1012.1593"
           y="524.88757"
           transform="scale(1.0018283,0.99817503)">2</text>
        <text
           class="st3 st6 st7"
           id="XMLID_39_"
           style="font-size:12.17047691px;font-family:Roboto-Regular;fill:#f4ede7;stroke-width:1.01420641"
           x="1058.7604"
           y="510.42892"
           transform="scale(0.99251676,1.0075397)">Поверх</text>
      </g>
      <g
         id="XMLID_1_"
         transform="translate(1133.1849,-1083.1719)">
        <rect
           height="66.093422"
           width="120.74963"
           class="st1"
           y="207.50128"
           x="-86.677757"
           id="XMLID_135_"
           style="fill:#b7957a;stroke-width:1.3238095" />
        <text
           class="st3 st4 st5"
           id="XMLID_131_"
           style="font-size:40.92334366px;font-family:EngraversGothic-Bold;fill:#f4ede7;stroke-width:1.13675964"
           x="-71.776222"
           y="248.29184"
           transform="scale(0.98473578,1.0155008)">12</text>
        <text
           class="st3 st6 st7"
           id="XMLID_130_"
           style="font-size:12.93143463px;font-family:Roboto-Regular;fill:#f4ede7;stroke-width:1.07761955"
           x="-18.37796"
           y="220.16129"
           transform="scale(0.90805187,1.1012587)">Поверх</text>
        <rect
           height="58.017502"
           width="459.05368"
           class="st0"
           y="213.03151"
           x="59.027054"
           id="XMLID_33_"
           style="opacity:0.5;stroke-width:2.74861431" />
        <polygon
           points="117.2,245.4 127.3,218.5 117.2,191.4 "
           class="st2"
           id="XMLID_132_"
           style="fill:#7c624c"
           transform="matrix(1.1495585,0,0,1.387146,-100.65638,-63.041872)" />
      </g>
      <g
         id="XMLID_3_"
         transform="translate(1019.7832,-1133.7231)">
        <rect
           height="78.790016"
           width="460.93021"
           class="st0"
           y="182.21187"
           x="172.55812"
           id="XMLID_128_"
           style="opacity:0.5;stroke-width:2.71764064" />
        <rect
           height="66.093422"
           width="120.74963"
           class="st1"
           y="186.91565"
           x="26.723946"
           id="XMLID_7_"
           style="fill:#b7957a;stroke-width:1.32380962" />
        <text
           class="st3 st4 st5"
           id="XMLID_6_"
           style="font-size:38.45670319px;font-family:EngraversGothic-Bold;fill:#f4ede7;stroke-width:1.06824183"
           x="50.31839"
           y="223.34882"
           transform="scale(0.94425408,1.059037)">13</text>
        <text
           class="st3 st6 st7"
           id="XMLID_5_"
           style="font-size:12.93143559px;font-family:Roboto-Regular;fill:#f4ede7;stroke-width:1.07761955"
           x="103.60928"
           y="204.39166"
           transform="scale(0.90805185,1.1012587)">Поверх</text>
        <polygon
           points="117.2,217.5 127.3,190.5 117.2,163.5 "
           class="st2"
           id="XMLID_2_"
           style="fill:#7c624c"
           transform="matrix(1.1495585,0,0,1.387146,12.745317,-44.044887)" />
      </g>
      <text
         class="st3 st6 st7"
         id="XMLID_109_-5"
         style="font-size:12.93143559px;font-family:Roboto-Regular;fill:#f4ede7;stroke-width:1.07761955"
         x="2466.4602"
         y="-763.9527"
         transform="scale(0.90805184,1.1012587)">Поверх</text>
    </g>
  </g>
  <style
     id="style10"
     type="text/css">
	.st0{opacity:0.5;}
	.st1{fill:#B7957A;}
	.st2{fill:#7C624C;}
	.st3{fill:#F4EDE7;}
	.st4{font-family:'EngraversGothic-Bold';}
	.st5{font-size:36px;}
	.st6{font-family:'Roboto-Regular';}
	.st7{font-size:12px;}
</style>
  <style
     id="style249"
     type="text/css">
	.st0{opacity:0.5;}
	.st1{fill:#B7957A;}
	.st2{fill:#7C624C;}
	.st3{fill:#F4EDE7;}
	.st4{font-family:'EngraversGothic-Bold';}
	.st5{font-size:36px;}
	.st6{font-family:'Roboto-Regular';}
	.st7{font-size:12px;}
</style>
</svg>
