<?xml version="1.0" encoding="utf-8"?>
<!-- Generator: Adobe Illustrator 19.0.0, SVG Export Plug-In . SVG Version: 6.00 Build 0)  -->
<svg version="1.1" id="Layer_1" xmlns="http://www.w3.org/2000/svg" xmlns:xlink="http://www.w3.org/1999/xlink" x="0px" y="0px"
	 viewBox="0 0 282 148" style="enable-background:new 0 0 282 148;" xml:space="preserve">
<style type="text/css">
	.st0{fill:url(#SVGID_1_);}
	.st1{fill:url(#SVGID_2_);}
	.st2{fill:url(#SVGID_3_);}
</style>
<path d="M90.6,91c-1,0-1.8-0.3-2.4-1c-0.6-0.6-1-1.5-1-2.4s0.3-1.8,1-2.4c0.6-0.7,1.4-1,2.4-1c1,0,1.8,0.4,2.4,1.1l-0.6,0.6
	c-0.5-0.6-1.1-0.8-1.8-0.8c-0.7,0-1.3,0.2-1.8,0.7c-0.5,0.5-0.7,1.1-0.7,1.9c0,0.8,0.2,1.4,0.7,1.9c0.5,0.5,1.1,0.7,1.8,0.7
	c0.8,0,1.4-0.3,2-1l0.6,0.6c-0.3,0.4-0.7,0.7-1.1,0.9C91.6,90.9,91.1,91,90.6,91"/>
<path d="M102.2,87.6c0,1-0.3,1.8-1,2.4c-0.6,0.7-1.4,1-2.4,1c-0.9,0-1.7-0.3-2.4-1c-0.6-0.6-1-1.5-1-2.4c0-1,0.3-1.8,1-2.4
	c0.6-0.7,1.4-1,2.4-1c0.9,0,1.7,0.3,2.4,1C101.9,85.9,102.2,86.7,102.2,87.6 M96.4,87.6c0,0.8,0.2,1.4,0.7,1.9
	c0.5,0.5,1.1,0.7,1.8,0.7c0.7,0,1.3-0.2,1.8-0.7c0.5-0.5,0.7-1.1,0.7-1.9s-0.2-1.4-0.7-1.9c-0.5-0.5-1.1-0.7-1.8-0.7
	c-0.7,0-1.3,0.2-1.8,0.7C96.6,86.3,96.4,86.9,96.4,87.6"/>
<polygon points="105.9,90.9 105,90.9 105,84.4 106.1,84.4 109.2,89.4 109.3,89.4 109.2,88.2 109.2,84.4 110.1,84.4 110.1,90.9 
	109.2,90.9 105.9,85.6 105.8,85.6 105.9,86.8 "/>
<path d="M116.2,91c-1,0-1.8-0.3-2.4-1c-0.6-0.6-1-1.5-1-2.4s0.3-1.8,1-2.4c0.6-0.7,1.4-1,2.4-1c1,0,1.8,0.4,2.4,1.1l-0.6,0.6
	c-0.5-0.6-1.1-0.8-1.8-0.8c-0.7,0-1.3,0.2-1.8,0.7c-0.5,0.5-0.7,1.1-0.7,1.9c0,0.8,0.2,1.4,0.7,1.9c0.5,0.5,1.1,0.7,1.8,0.7
	c0.8,0,1.4-0.3,2-1l0.6,0.6c-0.3,0.4-0.7,0.7-1.1,0.9S116.7,91,116.2,91"/>
<polygon points="125.3,84.4 125.3,85.2 122.4,85.2 122.4,87.2 125.1,87.2 125.1,88 122.4,88 122.4,90.1 125.3,90.1 125.3,90.9 
	121.5,90.9 121.5,84.4 "/>
<path d="M129.1,88.2v2.6h-0.8v-6.5h2.2c0.6,0,1,0.2,1.4,0.6c0.4,0.4,0.6,0.8,0.6,1.4c0,0.6-0.2,1-0.6,1.4c-0.4,0.4-0.9,0.6-1.4,0.6
	H129.1z M129.1,85.2v2.3h1.4c0.3,0,0.6-0.1,0.8-0.3c0.2-0.2,0.3-0.5,0.3-0.8c0-0.3-0.1-0.6-0.3-0.8c-0.2-0.2-0.5-0.3-0.8-0.3H129.1z
	"/>
<polygon points="137.5,85.2 137.5,90.9 136.6,90.9 136.6,85.2 134.8,85.2 134.8,84.4 139.3,84.4 139.3,85.2 "/>
<polygon points="146.6,90.9 145.8,90.9 145.8,84.4 146.6,84.4 146.6,87.2 149.9,87.2 149.9,84.4 150.7,84.4 150.7,90.9 149.9,90.9 
	149.9,87.9 146.6,87.9 "/>
<path d="M160.1,87.6c0,1-0.3,1.8-1,2.4c-0.6,0.7-1.4,1-2.4,1c-0.9,0-1.7-0.3-2.4-1c-0.6-0.6-1-1.5-1-2.4c0-1,0.3-1.8,1-2.4
	c0.6-0.7,1.4-1,2.4-1c0.9,0,1.7,0.3,2.4,1C159.8,85.9,160.1,86.7,160.1,87.6 M154.3,87.6c0,0.8,0.2,1.4,0.7,1.9
	c0.5,0.5,1.1,0.7,1.8,0.7c0.7,0,1.3-0.2,1.8-0.7c0.5-0.5,0.7-1.1,0.7-1.9s-0.2-1.4-0.7-1.9c-0.5-0.5-1.1-0.7-1.8-0.7
	c-0.7,0-1.3,0.2-1.8,0.7C154.5,86.3,154.3,86.9,154.3,87.6"/>
<path d="M165.2,91c-0.7,0-1.3-0.2-1.7-0.7c-0.4-0.5-0.7-1.1-0.7-1.9v-4.1h0.8v4.1c0,0.5,0.1,1,0.4,1.3c0.3,0.3,0.7,0.5,1.2,0.5
	c0.5,0,0.9-0.2,1.2-0.5c0.3-0.3,0.4-0.7,0.4-1.3v-4.1h0.8v4.1c0,0.8-0.2,1.4-0.7,1.9C166.5,90.8,166,91,165.2,91"/>
<path d="M174.6,89.1c0,0.6-0.2,1-0.6,1.4c-0.4,0.3-0.9,0.5-1.5,0.5c-0.5,0-1-0.2-1.4-0.5c-0.4-0.3-0.7-0.7-0.9-1.3l0.8-0.3
	c0.1,0.2,0.1,0.4,0.2,0.5c0.1,0.2,0.2,0.3,0.3,0.4c0.1,0.1,0.3,0.2,0.4,0.3c0.2,0.1,0.3,0.1,0.5,0.1c0.4,0,0.7-0.1,0.9-0.3
	c0.2-0.2,0.4-0.5,0.4-0.8c0-0.3-0.1-0.5-0.3-0.7c-0.2-0.2-0.5-0.4-1.1-0.5c-0.5-0.2-0.8-0.3-1-0.4c-0.7-0.4-1-0.9-1-1.6
	c0-0.5,0.2-0.9,0.6-1.2c0.4-0.3,0.9-0.5,1.4-0.5c0.5,0,0.9,0.1,1.3,0.4c0.4,0.2,0.6,0.6,0.7,0.9l-0.8,0.3c-0.1-0.2-0.2-0.4-0.4-0.6
	c-0.2-0.2-0.5-0.2-0.8-0.2c-0.3,0-0.6,0.1-0.8,0.3c-0.2,0.2-0.3,0.4-0.3,0.7c0,0.2,0.1,0.4,0.3,0.6c0.2,0.2,0.6,0.4,1.3,0.6
	c0.7,0.2,1.1,0.5,1.4,0.8C174.5,88.3,174.6,88.7,174.6,89.1"/>
<polygon points="181.3,84.4 181.3,85.2 178.3,85.2 178.3,87.2 181,87.2 181,88 178.3,88 178.3,90.1 181.3,90.1 181.3,90.9 
	177.5,90.9 177.5,84.4 "/>
<polygon points="77.2,45.3 77.2,48.4 65.9,48.4 65.9,56.3 76.1,56.3 76.1,59.3 65.9,59.3 65.9,67.2 77.2,67.2 77.2,70.3 62.7,70.3 
	62.7,45.3 "/>
<path d="M103.9,63.6c0,2.2-0.8,3.9-2.4,5.3c-1.6,1.3-3.6,1.9-5.9,1.9c-2.1,0-3.9-0.6-5.5-1.8c-1.6-1.2-2.7-2.9-3.3-4.9l3.1-1.3
	c0.2,0.7,0.5,1.4,0.9,2c0.4,0.6,0.8,1.1,1.3,1.5c0.5,0.4,1.1,0.8,1.7,1c0.6,0.2,1.2,0.4,1.9,0.4c1.5,0,2.7-0.4,3.6-1.1
	c0.9-0.8,1.4-1.8,1.4-3c0-1-0.4-1.9-1.1-2.7c-0.7-0.7-2.1-1.4-4-2.1c-2-0.7-3.2-1.2-3.7-1.5c-2.6-1.3-4-3.3-4-6
	c0-1.8,0.7-3.4,2.2-4.7c1.5-1.3,3.3-1.9,5.5-1.9c1.9,0,3.6,0.5,4.9,1.5c1.4,1,2.3,2.1,2.8,3.6l-3,1.3c-0.3-0.9-0.8-1.7-1.7-2.3
	s-1.8-0.9-3-0.9c-1.3,0-2.3,0.3-3.2,1c-0.9,0.7-1.3,1.5-1.3,2.5c0,0.9,0.3,1.6,1,2.2c0.7,0.6,2.4,1.4,4.8,2.2
	c2.5,0.9,4.3,1.9,5.4,3.2C103.4,60.3,103.9,61.8,103.9,63.6"/>
<rect x="114.7" y="45.3" width="3.2" height="24.9"/>
<polygon points="175.5,45.3 175.5,48.4 164.1,48.4 164.1,56.3 174.4,56.3 174.4,59.3 164.1,59.3 164.1,67.2 175.5,67.2 175.5,70.3 
	160.9,70.3 160.9,45.3 "/>
<polygon points="226.5,48.4 226.5,70.3 223.3,70.3 223.3,48.4 216.3,48.4 216.3,45.3 233.4,45.3 233.4,48.4 "/>
<g>
	<path d="M38.2,57.2h5.2c1.3,0,2.4-0.4,3.3-1.3C47.6,55,48,54,48,52.7c0-1.2-0.4-2.2-1.3-3c-0.8-0.9-1.9-1.3-3.2-1.3h-5.4l0-3.1h5.3
		c2.2,0,4,0.7,5.5,2.1c1.5,1.4,2.3,3.2,2.3,5.3c0,1.7-0.6,3.2-1.7,4.6c-1.1,1.3-2.5,2.2-4.3,2.6L45.3,60l7,10.1v0.1h-3.8l-6.7-10.1
		h-3.6V57.2"/>
	
		<linearGradient id="SVGID_1_" gradientUnits="userSpaceOnUse" x1="-1.659408e-002" y1="147.691" x2="1.0655" y2="147.691" gradientTransform="matrix(0 48.2937 48.2937 0 -7095.918 35)">
		<stop  offset="0" style="stop-color:#EFF6E6"/>
		<stop  offset="0.4845" style="stop-color:#EDB37A"/>
		<stop  offset="1" style="stop-color:#BD7A42"/>
	</linearGradient>
	<rect x="35" y="45.3" class="st0" width="3.2" height="24.9"/>
</g>
<g>
	<path d="M133.1,67.2l4.4,0c2.9,0,5.2-0.8,6.9-2.5c1.7-1.7,2.5-4,2.5-6.9c0-2.9-0.8-5.2-2.5-6.9c-1.7-1.7-4-2.5-6.9-2.5h-4.4v-3.1
		h4.4c3.8,0,6.9,1.1,9.2,3.4c2.3,2.3,3.5,5.3,3.5,9c0,3.7-1.2,6.7-3.5,9c-2.3,2.3-5.4,3.4-9.2,3.4h-4.4L133.1,67.2"/>
	
		<linearGradient id="SVGID_2_" gradientUnits="userSpaceOnUse" x1="-1.659408e-002" y1="147.84" x2="1.0655" y2="147.84" gradientTransform="matrix(0 48.2937 48.2937 0 -7008.2241 35)">
		<stop  offset="0" style="stop-color:#EFF6E6"/>
		<stop  offset="0.4845" style="stop-color:#EDB37A"/>
		<stop  offset="1" style="stop-color:#BD7A42"/>
	</linearGradient>
	<rect x="129.9" y="45.3" class="st1" width="3.2" height="24.9"/>
</g>
<g>
	<polygon points="190,63.2 186.8,63.2 186.8,45.3 190.7,45.3 202.8,64.7 202.9,64.7 202.8,59.9 202.8,45.3 206,45.3 206,70.3 
		202.6,70.3 190,49.9 189.8,49.9 190,54.7 	"/>
	
		<linearGradient id="SVGID_3_" gradientUnits="userSpaceOnUse" x1="-1.659408e-002" y1="147.9293" x2="1.0655" y2="147.9293" gradientTransform="matrix(0 48.2937 48.2937 0 -6955.6816 35)">
		<stop  offset="0" style="stop-color:#EFF6E6"/>
		<stop  offset="0.4845" style="stop-color:#EDB37A"/>
		<stop  offset="1" style="stop-color:#BD7A42"/>
	</linearGradient>
	<rect x="186.8" y="63.2" class="st2" width="3.2" height="7.1"/>
</g>
</svg>
