<?xml version="1.0" encoding="UTF-8" standalone="no"?>
<!-- Generator: Adobe Illustrator 19.0.0, SVG Export Plug-In . SVG Version: 6.00 Build 0)  -->

<svg
   xmlns:dc="http://purl.org/dc/elements/1.1/"
   xmlns:cc="http://creativecommons.org/ns#"
   xmlns:rdf="http://www.w3.org/1999/02/22-rdf-syntax-ns#"
   xmlns:svg="http://www.w3.org/2000/svg"
   xmlns="http://www.w3.org/2000/svg"
   xmlns:sodipodi="http://sodipodi.sourceforge.net/DTD/sodipodi-0.dtd"
   xmlns:inkscape="http://www.inkscape.org/namespaces/inkscape"
   version="1.1"
   id="Layer_1"
   x="0px"
   y="0px"
   viewBox="0 0 207 65"
   xml:space="preserve"
   sodipodi:docname="logo2 (2).svg"
   width="207"
   height="65"
   inkscape:version="0.92.2 (5c3e80d, 2017-08-06)"><metadata
     id="metadata3861"><rdf:RDF><cc:Work
         rdf:about=""><dc:format>image/svg+xml</dc:format><dc:type
           rdf:resource="http://purl.org/dc/dcmitype/StillImage" /><dc:title></dc:title></cc:Work></rdf:RDF></metadata><defs
     id="defs3859" /><sodipodi:namedview
     pagecolor="#ffffff"
     bordercolor="#666666"
     borderopacity="1"
     objecttolerance="10"
     gridtolerance="10"
     guidetolerance="10"
     inkscape:pageopacity="0"
     inkscape:pageshadow="2"
     inkscape:window-width="1920"
     inkscape:window-height="1017"
     id="namedview3857"
     showgrid="false"
     inkscape:zoom="5.7297297"
     inkscape:cx="141"
     inkscape:cy="60.037736"
     inkscape:window-x="-8"
     inkscape:window-y="-8"
     inkscape:window-maximized="1"
     inkscape:current-layer="Layer_1" /><style
     type="text/css"
     id="style3781">
	.st0{fill:url(#SVGID_1_);}
	.st1{fill:url(#SVGID_2_);}
	.st2{fill:url(#SVGID_3_);}
</style><path
     d="m 60.406603,55.471699 c -1,0 -1.8,-0.3 -2.4,-1 -0.6,-0.6 -1,-1.5 -1,-2.4 0,-0.9 0.3,-1.8 1,-2.4 0.6,-0.7 1.4,-1 2.4,-1 1,0 1.8,0.4 2.4,1.1 l -0.6,0.6 c -0.5,-0.6 -1.1,-0.8 -1.8,-0.8 -0.7,0 -1.3,0.2 -1.8,0.7 -0.5,0.5 -0.7,1.1 -0.7,1.9 0,0.8 0.2,1.4 0.7,1.9 0.5,0.5 1.1,0.7 1.8,0.7 0.8,0 1.4,-0.3 2,-1 l 0.6,0.6 c -0.3,0.4 -0.7,0.7 -1.1,0.9 -0.5,0.1 -1,0.2 -1.5,0.2"
     id="path3783"
     inkscape:connector-curvature="0" /><path
     d="m 72.006603,52.071699 c 0,1 -0.3,1.8 -1,2.4 -0.6,0.7 -1.4,1 -2.4,1 -0.9,0 -1.7,-0.3 -2.4,-1 -0.6,-0.6 -1,-1.5 -1,-2.4 0,-1 0.3,-1.8 1,-2.4 0.6,-0.7 1.4,-1 2.4,-1 0.9,0 1.7,0.3 2.4,1 0.7,0.7 1,1.5 1,2.4 m -5.8,0 c 0,0.8 0.2,1.4 0.7,1.9 0.5,0.5 1.1,0.7 1.8,0.7 0.7,0 1.3,-0.2 1.8,-0.7 0.5,-0.5 0.7,-1.1 0.7,-1.9 0,-0.8 -0.2,-1.4 -0.7,-1.9 -0.5,-0.5 -1.1,-0.7 -1.8,-0.7 -0.7,0 -1.3,0.2 -1.8,0.7 -0.5,0.6 -0.7,1.2 -0.7,1.9"
     id="path3785"
     inkscape:connector-curvature="0" /><polygon
     points="110.1,90.9 109.2,90.9 105.9,85.6 105.8,85.6 105.9,86.8 105.9,90.9 105,90.9 105,84.4 106.1,84.4 109.2,89.4 109.3,89.4 109.2,88.2 109.2,84.4 110.1,84.4 "
     id="polygon3787"
     transform="translate(-30.193397,-35.528302)" /><path
     d="m 86.006603,55.471699 c -1,0 -1.8,-0.3 -2.4,-1 -0.6,-0.6 -1,-1.5 -1,-2.4 0,-0.9 0.3,-1.8 1,-2.4 0.6,-0.7 1.4,-1 2.4,-1 1,0 1.8,0.4 2.4,1.1 l -0.6,0.6 c -0.5,-0.6 -1.1,-0.8 -1.8,-0.8 -0.7,0 -1.3,0.2 -1.8,0.7 -0.5,0.5 -0.7,1.1 -0.7,1.9 0,0.8 0.2,1.4 0.7,1.9 0.5,0.5 1.1,0.7 1.8,0.7 0.8,0 1.4,-0.3 2,-1 l 0.6,0.6 c -0.3,0.4 -0.7,0.7 -1.1,0.9 -0.4,0.2 -1,0.2 -1.5,0.2"
     id="path3789"
     inkscape:connector-curvature="0" /><polygon
     points="125.1,88 122.4,88 122.4,90.1 125.3,90.1 125.3,90.9 121.5,90.9 121.5,84.4 125.3,84.4 125.3,85.2 122.4,85.2 122.4,87.2 125.1,87.2 "
     id="polygon3791"
     transform="translate(-30.193397,-35.528302)" /><path
     d="m 98.906602,52.671699 v 2.6 h -0.799999 v -6.5 h 2.200017 c 0.6,0 1,0.2 1.4,0.6 0.4,0.4 0.6,0.8 0.6,1.4 0,0.6 -0.2,1 -0.6,1.4 -0.4,0.4 -0.9,0.6 -1.4,0.6 h -1.400018 z m 0,-3 v 2.3 h 1.400018 c 0.3,0 0.6,-0.1 0.8,-0.3 0.2,-0.2 0.3,-0.5 0.3,-0.8 0,-0.3 -0.1,-0.6 -0.3,-0.8 -0.2,-0.2 -0.5,-0.3 -0.8,-0.3 h -1.400018 z"
     id="path3793"
     inkscape:connector-curvature="0" /><polygon
     points="134.8,84.4 139.3,84.4 139.3,85.2 137.5,85.2 137.5,90.9 136.6,90.9 136.6,85.2 134.8,85.2 "
     id="polygon3795"
     transform="translate(-30.193397,-35.528302)" /><polygon
     points="149.9,87.2 149.9,84.4 150.7,84.4 150.7,90.9 149.9,90.9 149.9,87.9 146.6,87.9 146.6,90.9 145.8,90.9 145.8,84.4 146.6,84.4 146.6,87.2 "
     id="polygon3797"
     transform="translate(-30.193397,-35.528302)" /><path
     d="m 129.90662,52.071699 c 0,1 -0.3,1.8 -1,2.4 -0.6,0.7 -1.4,1 -2.4,1 -0.9,0 -1.7,-0.3 -2.4,-1 -0.6,-0.6 -1,-1.5 -1,-2.4 0,-1 0.3,-1.8 1,-2.4 0.6,-0.7 1.4,-1 2.4,-1 0.9,0 1.7,0.3 2.4,1 0.7,0.7 1,1.5 1,2.4 m -5.8,0 c 0,0.8 0.2,1.4 0.7,1.9 0.5,0.5 1.1,0.7 1.8,0.7 0.7,0 1.3,-0.2 1.8,-0.7 0.5,-0.5 0.7,-1.1 0.7,-1.9 0,-0.8 -0.2,-1.4 -0.7,-1.9 -0.5,-0.5 -1.1,-0.7 -1.8,-0.7 -0.7,0 -1.3,0.2 -1.8,0.7 -0.5,0.6 -0.7,1.2 -0.7,1.9"
     id="path3799"
     inkscape:connector-curvature="0" /><path
     d="m 135.00662,55.471699 c -0.7,0 -1.3,-0.2 -1.7,-0.7 -0.4,-0.5 -0.7,-1.1 -0.7,-1.9 v -4.1 h 0.8 v 4.1 c 0,0.5 0.1,1 0.4,1.3 0.3,0.3 0.7,0.5 1.2,0.5 0.5,0 0.9,-0.2 1.2,-0.5 0.3,-0.3 0.4,-0.7 0.4,-1.3 v -4.1 h 0.8 v 4.1 c 0,0.8 -0.2,1.4 -0.7,1.9 -0.4,0.5 -0.9,0.7 -1.7,0.7"
     id="path3801"
     inkscape:connector-curvature="0" /><path
     d="m 144.40662,53.571699 c 0,0.6 -0.2,1 -0.6,1.4 -0.4,0.3 -0.9,0.5 -1.5,0.5 -0.5,0 -1,-0.2 -1.4,-0.5 -0.4,-0.3 -0.7,-0.7 -0.9,-1.3 l 0.8,-0.3 c 0.1,0.2 0.1,0.4 0.2,0.5 0.1,0.2 0.2,0.3 0.3,0.4 0.1,0.1 0.3,0.2 0.4,0.3 0.2,0.1 0.3,0.1 0.5,0.1 0.4,0 0.7,-0.1 0.9,-0.3 0.2,-0.2 0.4,-0.5 0.4,-0.8 0,-0.3 -0.1,-0.5 -0.3,-0.7 -0.2,-0.2 -0.5,-0.4 -1.1,-0.5 -0.5,-0.2 -0.8,-0.3 -1,-0.4 -0.7,-0.4 -1,-0.9 -1,-1.6 0,-0.5 0.2,-0.9 0.6,-1.2 0.4,-0.3 0.9,-0.5 1.4,-0.5 0.5,0 0.9,0.1 1.3,0.4 0.4,0.2 0.6,0.6 0.7,0.9 l -0.8,0.3 c -0.1,-0.2 -0.2,-0.4 -0.4,-0.6 -0.2,-0.2 -0.5,-0.2 -0.8,-0.2 -0.3,0 -0.6,0.1 -0.8,0.3 -0.2,0.2 -0.3,0.4 -0.3,0.7 0,0.2 0.1,0.4 0.3,0.6 0.2,0.2 0.6,0.4 1.3,0.6 0.7,0.2 1.1,0.5 1.4,0.8 0.3,0.3 0.4,0.7 0.4,1.1"
     id="path3803"
     inkscape:connector-curvature="0" /><polygon
     points="181,88 178.3,88 178.3,90.1 181.3,90.1 181.3,90.9 177.5,90.9 177.5,84.4 181.3,84.4 181.3,85.2 178.3,85.2 178.3,87.2 181,87.2 "
     id="polygon3805"
     transform="translate(-30.193397,-35.528302)" /><polygon
     points="76.1,59.3 65.9,59.3 65.9,67.2 77.2,67.2 77.2,70.3 62.7,70.3 62.7,45.3 77.2,45.3 77.2,48.4 65.9,48.4 65.9,56.3 76.1,56.3 "
     id="polygon3807"
     transform="translate(-30.193397,-35.528302)" /><path
     d="m 73.706603,28.071699 c 0,2.2 -0.8,3.9 -2.4,5.3 -1.6,1.3 -3.6,1.9 -5.9,1.9 -2.1,0 -3.9,-0.6 -5.5,-1.8 -1.6,-1.2 -2.7,-2.9 -3.3,-4.9 l 3.1,-1.3 c 0.2,0.7 0.5,1.4 0.9,2 0.4,0.6 0.8,1.1 1.3,1.5 0.5,0.4 1.1,0.8 1.7,1 0.6,0.2 1.2,0.4 1.9,0.4 1.5,0 2.7,-0.4 3.6,-1.1 0.9,-0.8 1.4,-1.8 1.4,-3 0,-1 -0.4,-1.9 -1.1,-2.7 -0.7,-0.7 -2.1,-1.4 -4,-2.1 -2,-0.7 -3.2,-1.2 -3.7,-1.5 -2.6,-1.3 -4,-3.3 -4,-6 0,-1.800001 0.7,-3.400001 2.2,-4.700001 1.5,-1.3000001 3.3,-1.9000001 5.5,-1.9000001 1.9,0 3.6,0.5 4.9,1.5000001 1.4,1 2.3,2.1 2.8,3.6 l -3,1.300001 c -0.3,-0.899997 -0.8,-1.700001 -1.7,-2.300001 -0.9,-0.6 -1.8,-0.9 -3,-0.9 -1.3,0 -2.3,0.3 -3.2,1 -0.9,0.7 -1.3,1.500004 -1.3,2.500001 0,0.9 0.3,1.6 1,2.2 0.7,0.6 2.4,1.4 4.8,2.2 2.5,0.9 4.3,1.9 5.4,3.2 1.1,1.3 1.6,2.8 1.6,4.6"
     id="path3809"
     inkscape:connector-curvature="0" /><rect
     x="84.506592"
     y="9.7716913"
     width="3.2"
     height="24.9"
     id="rect3811" /><polygon
     points="174.4,59.3 164.1,59.3 164.1,67.2 175.5,67.2 175.5,70.3 160.9,70.3 160.9,45.3 175.5,45.3 175.5,48.4 164.1,48.4 164.1,56.3 174.4,56.3 "
     id="polygon3813"
     transform="translate(-30.193397,-35.528302)" /><polygon
     points="216.3,45.3 233.4,45.3 233.4,48.4 226.5,48.4 226.5,70.3 223.3,70.3 223.3,48.4 216.3,48.4 "
     id="polygon3815"
     transform="translate(-30.193397,-35.528302)" /><g
     id="g3828"
     transform="translate(-30.193397,-35.528302)"><path
       d="m 38.2,57.2 h 5.2 c 1.3,0 2.4,-0.4 3.3,-1.3 C 47.6,55 48,54 48,52.7 c 0,-1.2 -0.4,-2.2 -1.3,-3 -0.8,-0.9 -1.9,-1.3 -3.2,-1.3 h -5.4 v -3.1 h 5.3 c 2.2,0 4,0.7 5.5,2.1 1.5,1.4 2.3,3.2 2.3,5.3 0,1.7 -0.6,3.2 -1.7,4.6 -1.1,1.3 -2.5,2.2 -4.3,2.6 l 0.1,0.1 7,10.1 v 0.1 H 48.5 L 41.8,60.1 h -3.6 v -2.9"
       id="path3817"
       inkscape:connector-curvature="0" /><linearGradient
       id="SVGID_1_"
       gradientUnits="userSpaceOnUse"
       x1="-0.01659408"
       y1="147.69099"
       x2="1.0655"
       y2="147.69099"
       gradientTransform="matrix(0,48.2937,48.2937,0,-7095.918,35)"><stop
         offset="0"
         style="stop-color:#EFF6E6"
         id="stop3819" /><stop
         offset="0.4845"
         style="stop-color:#EDB37A"
         id="stop3821" /><stop
         offset="1"
         style="stop-color:#BD7A42"
         id="stop3823" /></linearGradient><rect
       x="35"
       y="45.299999"
       class="st0"
       width="3.2"
       height="24.9"
       id="rect3826"
       style="fill:url(#SVGID_1_)" /></g><g
     id="g3841"
     transform="translate(-30.193397,-35.528302)"><path
       d="m 133.1,67.2 h 4.4 c 2.9,0 5.2,-0.8 6.9,-2.5 1.7,-1.7 2.5,-4 2.5,-6.9 0,-2.9 -0.8,-5.2 -2.5,-6.9 -1.7,-1.7 -4,-2.5 -6.9,-2.5 h -4.4 v -3.1 h 4.4 c 3.8,0 6.9,1.1 9.2,3.4 2.3,2.3 3.5,5.3 3.5,9 0,3.7 -1.2,6.7 -3.5,9 -2.3,2.3 -5.4,3.4 -9.2,3.4 h -4.4 v -2.9"
       id="path3830"
       inkscape:connector-curvature="0" /><linearGradient
       id="SVGID_2_"
       gradientUnits="userSpaceOnUse"
       x1="-0.01659408"
       y1="147.84"
       x2="1.0655"
       y2="147.84"
       gradientTransform="matrix(0,48.2937,48.2937,0,-7008.2241,35)"><stop
         offset="0"
         style="stop-color:#EFF6E6"
         id="stop3832" /><stop
         offset="0.4845"
         style="stop-color:#EDB37A"
         id="stop3834" /><stop
         offset="1"
         style="stop-color:#BD7A42"
         id="stop3836" /></linearGradient><rect
       x="129.89999"
       y="45.299999"
       class="st1"
       width="3.2"
       height="24.9"
       id="rect3839"
       style="fill:url(#SVGID_2_)" /></g><g
     id="g3854"
     transform="translate(-30.193397,-35.528302)"><polygon
       points="206,70.3 202.6,70.3 190,49.9 189.8,49.9 190,54.7 190,63.2 186.8,63.2 186.8,45.3 190.7,45.3 202.8,64.7 202.9,64.7 202.8,59.9 202.8,45.3 206,45.3 "
       id="polygon3843" /><linearGradient
       id="SVGID_3_"
       gradientUnits="userSpaceOnUse"
       x1="-0.01659408"
       y1="147.92931"
       x2="1.0655"
       y2="147.92931"
       gradientTransform="matrix(0,48.2937,48.2937,0,-6955.6816,35)"><stop
         offset="0"
         style="stop-color:#EFF6E6"
         id="stop3845" /><stop
         offset="0.4845"
         style="stop-color:#EDB37A"
         id="stop3847" /><stop
         offset="1"
         style="stop-color:#BD7A42"
         id="stop3849" /></linearGradient><rect
       x="186.8"
       y="63.200001"
       class="st2"
       width="3.2"
       height="7.0999999"
       id="rect3852"
       style="fill:url(#SVGID_3_)" /></g></svg>